<svg xmlns="http://www.w3.org/2000/svg"  viewBox="0 0 72 72" width="64px" height="64px"><path d="M45.049,14C57.06,14,58,14.94,58,26.951v18.098C58,57.06,57.06,58,45.049,58h-2.298V41.982h5.647l0.888-6.347h-6.535	c0,0-0.01-3.716,0-4.643c0.019-1.814,1.533-2.732,2.835-2.718c1.302,0.013,3.998,0.004,3.998,0.004v-5.849	c0,0-2.335-0.302-4.784-0.328c-2.058-0.021-4.331,0.535-6.165,2.384c-1.865,1.88-2.16,4.679-2.195,8.1c-0.01,0.989,0,3.049,0,3.049	h-5.526v6.347h5.526V58h-9.489C14.94,58,14,57.06,14,45.049V26.951C14,14.94,14.94,14,26.951,14H45.049z"/></svg>